<svg  viewBox="0 0 659 249" fill="none" xmlns="http://www.w3.org/2000/svg">
<path fill-rule="evenodd" clip-rule="evenodd" d="M266.525 1.49031C194.823 8.63389 119.813 27.4312 37.3137 58.9282C17.7682 66.391 -1.78232 74.7886 0.129718 74.9026C0.766509 74.9396 7.63785 72.7822 15.4027 70.106C100.431 40.8035 200.384 26.7472 285.696 32.0953C329.806 34.8612 337.184 36.0511 412.809 52.6026C421.292 54.4594 428.649 56.3333 429.157 56.7679C429.664 57.2025 427.412 63.464 424.151 70.6831C411.944 97.7028 417.743 103.957 454.895 103.845C512.363 103.669 590.52 85.7583 644.526 60.3874C660.922 52.6838 663.813 50.2399 650.959 54.951C646.678 56.52 636.258 59.3928 627.801 61.3379C599.419 67.863 582.604 69.7341 551.581 69.8196C520.65 69.9051 508.984 68.7394 458.546 60.5257C435.638 56.795 431.516 55.7433 432.369 53.8424C434.737 48.5684 435.142 39.3229 433.221 34.3496C424.896 12.7878 385.864 1.16256 318.202 0.0938066C297.748 -0.228246 278.588 0.289027 266.525 1.49031Z" fill="#F47C00"/>
<path d="M118.432 218H92.0645V209.431C87.5234 213.142 83.2754 215.876 79.3203 217.634C75.3652 219.392 70.7998 220.271 65.624 220.271C55.6143 220.271 47.6064 216.413 41.6006 208.698C35.5947 200.983 32.5918 190.583 32.5918 177.497C32.5918 170.515 33.5928 164.338 35.5947 158.967C37.6455 153.547 40.4287 148.908 43.9443 145.051C47.2646 141.389 51.293 138.557 56.0293 136.555C60.7656 134.504 65.502 133.479 70.2383 133.479C75.1699 133.479 79.1982 134.016 82.3232 135.09C85.4971 136.115 88.7441 137.434 92.0645 139.045V104.035H118.432V218ZM92.0645 195.295V154.938C90.209 154.157 88.2559 153.596 86.2051 153.254C84.1543 152.912 82.2744 152.741 80.5654 152.741C73.6318 152.741 68.4316 154.914 64.9648 159.26C61.498 163.557 59.7646 169.538 59.7646 177.204C59.7646 185.261 61.1562 191.12 63.9395 194.782C66.7227 198.396 71.1904 200.202 77.3428 200.202C79.7354 200.202 82.2744 199.763 84.96 198.884C87.6455 197.956 90.0137 196.76 92.0645 195.295ZM224.34 181.745H163.988C164.379 188.19 166.82 193.122 171.312 196.54C175.854 199.958 182.519 201.667 191.308 201.667C196.874 201.667 202.27 200.666 207.494 198.664C212.719 196.662 216.845 194.514 219.872 192.219H222.802V213.386C216.845 215.778 211.229 217.512 205.956 218.586C200.683 219.66 194.848 220.197 188.451 220.197C171.947 220.197 159.301 216.486 150.512 209.064C141.723 201.643 137.328 191.071 137.328 177.351C137.328 163.776 141.479 153.034 149.779 145.124C158.129 137.165 169.555 133.186 184.057 133.186C197.436 133.186 207.494 136.579 214.232 143.366C220.971 150.104 224.34 159.821 224.34 172.517V181.745ZM198.119 166.291C197.973 160.773 196.605 156.623 194.018 153.84C191.43 151.057 187.401 149.665 181.933 149.665C176.854 149.665 172.68 150.983 169.408 153.62C166.137 156.257 164.306 160.48 163.915 166.291H198.119ZM269.311 218H242.943V135.749H269.311V218ZM270.043 124.03H242.211V104.035H270.043V124.03ZM374.633 159.699V218H348.119V176.911C348.119 172.907 348.021 169.514 347.826 166.73C347.631 163.898 347.094 161.604 346.215 159.846C345.336 158.088 343.993 156.818 342.187 156.037C340.429 155.207 337.938 154.792 334.716 154.792C332.128 154.792 329.613 155.329 327.172 156.403C324.73 157.429 322.533 158.527 320.58 159.699V218H294.213V135.749H320.58V144.831C325.121 141.267 329.467 138.483 333.617 136.481C337.768 134.479 342.357 133.479 347.387 133.479C352.807 133.479 357.592 134.699 361.742 137.141C365.893 139.533 369.14 143.073 371.483 147.761C376.757 143.317 381.884 139.826 386.864 137.287C391.845 134.748 396.728 133.479 401.513 133.479C410.399 133.479 417.138 136.14 421.728 141.462C426.366 146.784 428.686 154.45 428.686 164.46V218H402.172V176.911C402.172 172.858 402.074 169.44 401.879 166.657C401.732 163.874 401.22 161.604 400.341 159.846C399.511 158.088 398.192 156.818 396.386 156.037C394.579 155.207 392.04 154.792 388.769 154.792C386.571 154.792 384.423 155.183 382.323 155.964C380.224 156.696 377.66 157.941 374.633 159.699ZM537.084 176.911C537.084 190.437 533.129 201.105 525.219 208.918C517.357 216.682 506.298 220.563 492.04 220.563C477.782 220.563 466.698 216.682 458.788 208.918C450.927 201.105 446.996 190.437 446.996 176.911C446.996 163.288 450.951 152.595 458.861 144.831C466.82 137.067 477.88 133.186 492.04 133.186C506.396 133.186 517.479 137.092 525.292 144.904C533.153 152.717 537.084 163.386 537.084 176.911ZM504.638 196.906C506.347 194.807 507.616 192.292 508.446 189.362C509.325 186.384 509.765 182.282 509.765 177.058C509.765 172.224 509.325 168.171 508.446 164.899C507.567 161.628 506.347 159.016 504.784 157.062C503.222 155.061 501.342 153.645 499.145 152.814C496.947 151.984 494.579 151.569 492.04 151.569C489.501 151.569 487.23 151.911 485.229 152.595C483.275 153.278 481.396 154.646 479.589 156.696C477.978 158.601 476.684 161.213 475.707 164.533C474.779 167.854 474.315 172.028 474.315 177.058C474.315 181.55 474.73 185.456 475.561 188.776C476.391 192.048 477.611 194.685 479.223 196.687C480.785 198.591 482.641 199.982 484.789 200.861C486.986 201.74 489.477 202.18 492.26 202.18C494.652 202.18 496.923 201.789 499.071 201.008C501.269 200.178 503.124 198.811 504.638 196.906ZM627.465 191.926C627.465 200.422 623.656 207.282 616.039 212.507C608.422 217.683 597.997 220.271 584.765 220.271C577.44 220.271 570.8 219.587 564.843 218.22C558.886 216.853 554.101 215.339 550.487 213.679V191.999H552.904C554.223 192.927 555.736 193.952 557.445 195.075C559.203 196.149 561.669 197.321 564.843 198.591C567.577 199.714 570.678 200.69 574.145 201.521C577.611 202.302 581.322 202.692 585.277 202.692C590.453 202.692 594.286 202.131 596.776 201.008C599.267 199.836 600.512 198.127 600.512 195.881C600.512 193.879 599.779 192.438 598.314 191.56C596.85 190.632 594.066 189.753 589.965 188.923C588.012 188.483 585.351 188.02 581.981 187.531C578.661 186.994 575.634 186.359 572.899 185.627C565.429 183.674 559.887 180.646 556.273 176.545C552.66 172.395 550.854 167.243 550.854 161.091C550.854 153.181 554.589 146.613 562.06 141.389C569.579 136.115 579.833 133.479 592.821 133.479C598.974 133.479 604.857 134.113 610.473 135.383C616.137 136.604 620.556 137.922 623.729 139.338V160.139H621.459C617.553 157.453 613.085 155.28 608.056 153.62C603.075 151.911 598.021 151.057 592.895 151.057C588.646 151.057 585.058 151.643 582.128 152.814C579.247 153.986 577.807 155.646 577.807 157.795C577.807 159.748 578.466 161.237 579.784 162.263C581.103 163.288 584.203 164.313 589.086 165.339C591.771 165.876 594.652 166.413 597.729 166.95C600.854 167.438 603.979 168.073 607.104 168.854C614.037 170.661 619.164 173.518 622.484 177.424C625.805 181.281 627.465 186.115 627.465 191.926Z" fill="#FFF"/>
</svg>
