<svg xmlns="http://www.w3.org/2000/svg" viewBox="0 0 2331 697" fill="none">
  <path d="M1155.93 162.686C1155.93 76.6187 1156.4 4.9867 1156.97 3.50359C1157.9 1.07021 1168.92 0.849615 1269.38 1.2433L1380.76 1.67941L1381.23 33.797C1381.58 58.3565 1381.18 66.2369 1379.53 67.2856C1378.34 68.0391 1345.09 68.6669 1305.64 68.6822L1233.91 68.7077L1234.37 97.9795L1234.84 127.251L1297.17 127.696L1359.5 128.142L1360.44 131.938C1360.95 134.027 1361.16 147.572 1360.89 162.038L1360.4 188.34L1297.62 189.241C1263.09 189.737 1234.63 190.309 1234.37 190.514C1234.12 190.718 1234.12 205.204 1234.37 222.703L1234.84 254.52L1308.5 254.963C1359.44 255.268 1382.86 255.986 1384.43 257.291C1386.17 258.739 1386.7 266.224 1386.7 289.455C1386.7 317.652 1386.48 319.853 1383.42 321.489C1378.41 324.168 1160.66 323.899 1157.97 321.209C1156.41 319.655 1155.93 282.136 1155.93 162.686Z" fill="#062427"/>
  <path d="M812.604 1.96278C811.982 2.58385 811.473 74.6638 811.473 162.14C811.473 305.602 811.736 321.285 814.157 322.215C817.656 323.559 881.648 323.559 885.146 322.215C887.547 321.294 887.831 311.852 887.831 233.042C887.831 157.494 888.174 145.094 890.235 146.257C891.557 147.003 903.454 160.978 916.67 177.31C929.889 193.643 945.033 212.297 950.326 218.763C955.616 225.23 966.819 239.066 975.218 249.513C1009.68 292.38 1024.74 310.703 1030.53 316.807L1036.63 323.245L1064.46 323.22C1079.77 323.205 1093.26 322.585 1094.43 321.84C1096.12 320.769 1096.47 287.486 1096.13 161.084L1095.69 1.6794H1058.36H1021.03L1020.18 91.4752C1019.63 149.983 1018.74 181.471 1017.61 181.845C1016.67 182.16 1014.76 180.602 1013.37 178.383C1010.36 173.555 1003.84 165.25 991.656 150.726C986.698 144.814 978.298 134.353 972.991 127.475C967.683 120.599 957.232 107.448 949.766 98.2493C942.3 89.0486 934.664 79.4814 932.797 76.9869C923.118 64.0513 875.13 4.77797 872.854 2.95209C870.029 0.681609 814.792 -0.224545 812.604 1.96278Z" fill="#062427"/>
  <path d="M1396.88 3.26941C1396.88 4.61167 1413.92 30.3828 1434.73 60.5404C1495.37 148.383 1505.63 163.815 1504.57 165.535C1504.02 166.428 1495.86 178.413 1486.44 192.172C1477.02 205.931 1459.75 231.315 1448.05 248.581C1436.35 265.847 1420.82 288.606 1413.53 299.156C1406.24 309.707 1400.28 318.979 1400.28 319.762C1400.28 320.546 1401.49 321.649 1402.96 322.215C1406.31 323.5 1474.54 323.542 1479.18 322.263C1481.24 321.696 1488.52 311.832 1497.65 297.257C1505.94 284.018 1514.72 270.132 1517.16 266.399C1519.6 262.665 1521.99 258.807 1522.45 257.826C1522.92 256.843 1528.57 247.821 1535.01 237.777C1544.3 223.288 1547.12 219.976 1548.7 221.744C1549.78 222.971 1554.76 230.466 1559.75 238.399C1564.74 246.333 1570.53 255.496 1572.6 258.762C1574.67 262.029 1583.79 276.538 1592.85 291.004C1601.91 305.47 1610.86 318.642 1612.74 320.276C1615.77 322.913 1620.39 323.245 1654.05 323.245C1676.94 323.245 1692.34 322.587 1692.96 321.584C1694.52 319.071 1693.64 317.717 1639.19 238.608C1611.29 198.074 1588.84 163.937 1589.3 162.747C1590 160.901 1608.86 133.325 1626.71 108.02C1629.56 103.975 1632.89 99.0112 1634.09 96.9902C1635.3 94.9674 1644.23 81.8588 1653.94 67.8592C1663.65 53.8596 1677.17 34.2076 1683.99 24.1856C1690.8 14.1653 1696.95 5.95733 1697.65 5.94375C1698.35 5.93187 1698.92 19.1916 1698.92 35.4107C1698.92 57.9102 1699.46 65.3427 1701.19 66.7749C1702.69 68.0238 1719.33 68.8044 1750.82 69.1047L1798.19 69.5561L1798.62 195.035C1798.96 292.831 1799.52 320.809 1801.17 321.854C1803.63 323.413 1868.73 323.743 1872.71 322.215C1875.13 321.289 1875.4 308.494 1875.4 194.946V68.7076H1922.57C1957 68.7076 1970.29 68.1578 1971.78 66.6713C1973.93 64.5197 1974.81 8.80306 1972.78 3.50528C1971.84 1.06851 1954.88 0.817363 1794.84 0.86318C1629.45 0.910694 1617.76 1.10414 1615.36 3.84127C1613.95 5.45165 1598.89 28.5331 1581.88 55.1323C1549.76 105.373 1546.36 110.104 1545.02 106.491C1544.6 105.341 1540.87 99.3625 1536.74 93.2078C1532.62 87.053 1529.24 81.7569 1529.24 81.4379C1529.24 80.0431 1479.25 3.25074 1477.61 2.12908C1476.61 1.44353 1458.04 0.871665 1436.34 0.856393C1403.15 0.834333 1396.88 1.21784 1396.88 3.26941Z" fill="#062427"/>
  <path d="M2046.76 373.729C2046.24 489.102 2047.11 690.791 2048.14 691.824C2048.92 692.605 2065.92 693.036 2085.92 692.783L2122.29 692.325L2122.73 603.661C2122.97 554.895 2123.73 515.043 2124.42 515.099C2125.62 515.196 2131.66 522.525 2174.68 576.033C2193.19 599.054 2197.44 604.287 2214.77 625.429C2219.9 631.692 2234.35 649.513 2246.89 665.032L2269.68 693.248L2300.34 692.787L2331 692.325V531.966V371.607H2292.82H2254.64L2253.79 462.74L2252.94 553.873L2225.56 519.587C2210.49 500.729 2189.32 474.229 2178.5 460.696C2167.68 447.163 2152.51 428.169 2144.8 418.487C2137.08 408.806 2125.22 394.105 2118.43 385.821L2106.09 370.759H2076.44C2049.33 370.759 2046.78 371.014 2046.76 373.729Z" fill="#062427"/>
  <path fill-rule="evenodd" clip-rule="evenodd" d="M1827.92 376.274C1826.78 379.306 1825.22 383.316 1824.45 385.183C1823.69 387.049 1821.03 394.304 1818.55 401.304C1816.07 408.303 1813.41 415.558 1812.65 417.424C1811.88 419.291 1810.48 423.109 1809.53 425.909C1805.39 438.145 1798.33 457.024 1795.42 463.647C1793.67 467.604 1792.25 471.851 1792.25 473.085C1792.25 474.32 1790.83 478.337 1789.1 482.012C1787.37 485.688 1783.88 494.804 1781.35 502.27C1778.82 509.737 1776.1 517.373 1775.29 519.239C1772.54 525.633 1763.01 551.477 1759.97 560.814C1758.3 565.947 1754.11 577.401 1750.66 586.268C1747.21 595.134 1743.77 604.297 1743.02 606.631C1742.27 608.964 1739.63 616.218 1737.16 622.751C1734.69 629.284 1730.73 639.975 1728.36 646.508C1725.99 653.041 1721.43 665.483 1718.22 674.156C1715.01 682.829 1712.84 690.657 1713.39 691.549C1713.98 692.505 1730.08 693.173 1752.53 693.173C1787.35 693.173 1790.74 692.915 1791.61 690.204C1792.13 688.571 1793.14 685.707 1793.85 683.84C1794.56 681.974 1796.04 677.774 1797.14 674.507C1798.25 671.241 1801.08 662.841 1803.44 655.841C1805.8 648.841 1808.36 641.587 1809.13 639.721C1809.9 637.854 1811.5 633.08 1812.69 629.115L1814.85 621.903H1864.61H1914.36L1915.47 626.569C1916.09 629.135 1917.14 632 1917.82 632.933C1918.5 633.866 1919.46 636.539 1919.95 638.872C1921.47 646.079 1936.69 688.807 1938.54 691.052C1939.85 692.634 1949.95 693.173 1978.26 693.173C2011.24 693.173 2016.23 692.831 2016.23 690.574C2016.23 689.143 2013.88 681.697 2011.01 674.029C2008.14 666.359 2004.25 655.884 2002.37 650.75C2000.49 645.617 1997.95 638.745 1996.72 635.478C1994.61 629.88 1992.28 623.491 1983.84 600.267C1981.9 594.9 1978.46 585.928 1976.2 580.328C1973.95 574.729 1972.11 569.185 1972.11 568.007C1972.11 566.831 1970.66 562.631 1968.89 558.674C1967.11 554.719 1963.61 545.754 1961.11 538.754C1956.53 525.964 1955.55 523.266 1944.1 492.089C1940.67 482.756 1936.47 471.301 1934.77 466.635C1933.07 461.968 1928.18 448.962 1923.9 437.73C1919.62 426.498 1916.12 416.152 1916.12 414.736C1916.12 413.321 1915.44 411.439 1914.62 410.552C1913.8 409.666 1911.42 403.976 1909.34 397.91C1907.25 391.843 1904.58 384.589 1903.38 381.789C1902.19 378.989 1900.77 375.363 1900.23 373.729C1899.35 371.029 1896.11 370.759 1864.63 370.759H1829.99L1827.92 376.274ZM1897.78 566.254C1898.57 565.472 1891.75 542.178 1882.63 514.491C1873.52 486.804 1865.62 464.137 1865.08 464.12C1863.92 464.084 1860.79 470.278 1859.52 475.119C1859.03 476.986 1852.38 496.458 1844.75 518.391C1837.12 540.324 1830.77 560.177 1830.65 562.511L1830.43 566.753L1863.4 567.215C1881.53 567.469 1897 567.036 1897.78 566.254Z" fill="#062427"/>
  <path d="M1273.02 370.067C1268.66 370.834 1260.37 372.957 1248.41 376.369C1238.53 379.188 1219.84 388.539 1207.9 396.637C1176.99 417.597 1153.82 450.075 1144.03 486.149C1142.89 490.349 1141.29 496 1140.46 498.705C1137.82 507.366 1138.66 552.74 1141.66 563.7C1143.14 569.113 1144.94 575.832 1145.66 578.631C1147.18 584.53 1154.85 602.942 1159.01 610.671C1167.3 626.055 1186.18 648.869 1199.2 659.23C1218.11 674.283 1247.39 689.78 1256.91 689.78C1259.12 689.78 1261.33 690.416 1261.81 691.193C1262.29 691.97 1271.31 693.531 1281.85 694.663C1297.85 696.381 1303.81 696.306 1317.98 694.207C1340.85 690.82 1349.4 688.855 1359.96 684.565C1393.47 670.947 1414.96 654.484 1428.61 631.964C1435.56 620.493 1435.33 619.475 1424.51 613.262C1419.12 610.165 1412.71 606.451 1410.28 605.01C1384.41 589.656 1374.34 584.396 1372.3 585.176C1370.97 585.686 1368.36 589.101 1366.49 592.765C1360.39 604.73 1344.81 616.435 1326.13 623.091C1315.64 626.826 1287.22 627.167 1276.41 623.688C1257.16 617.493 1238.17 600.763 1229.05 581.963C1226.81 577.33 1224.31 572.198 1223.52 570.558C1217.6 558.396 1215.32 528.296 1218.86 508.946C1221.5 494.495 1229.64 476.353 1238.82 464.437C1246.14 454.938 1266 442.868 1279.92 439.457C1313.03 431.341 1353.82 446.336 1366.56 471.308C1368.39 474.895 1370.92 478.225 1372.18 478.707C1374.2 479.484 1427.74 443.949 1429.96 440.358C1431.43 437.979 1414.24 413.808 1405.73 406.292C1389.82 392.239 1370.02 381.025 1351.92 375.819C1348.19 374.745 1342.84 373.084 1340.04 372.127C1334.87 370.36 1280.78 368.699 1273.02 370.067Z" fill="#062427"/>
  <path fill-rule="evenodd" clip-rule="evenodd" d="M928.555 370.177C874.833 381.105 831.633 413.844 809.326 460.534C805.578 468.379 801.887 477.161 801.124 480.049C800.358 482.937 798.497 489.501 796.987 494.634C793.221 507.43 791.855 538.986 794.362 555.28C801.049 598.737 827.42 642.332 861.109 665.622C886.733 683.336 903.986 690.009 935.706 694.468C951.941 696.752 955.845 696.749 972.188 694.439C991.618 691.695 1007.59 687.794 1014.9 684.01C1017.34 682.744 1021.63 680.671 1024.43 679.401C1054.54 665.75 1087.47 631.343 1102.19 598.146C1113.28 573.139 1118.34 541.309 1115.24 516.078C1110.14 474.655 1094.8 443.299 1065.3 413.978C1048.06 396.841 1030.08 385.271 1009.85 378.297C1002.93 375.911 994.987 373.162 992.187 372.186C986.816 370.314 935.799 368.704 928.555 370.177ZM1029.23 489.71C1019.32 463.764 999.838 446.184 973.589 439.51C932.5 429.063 894.92 450.302 877.551 493.786C872.071 507.51 870.309 540.544 874.156 557.508C881.401 589.473 901.244 613.751 927.707 623.031C939.595 627.201 968.757 627.248 980.093 623.118C1001.02 615.494 1015.23 602.543 1025.64 581.625C1033.56 565.709 1035.37 558.07 1036.62 535.392C1037.59 517.78 1035.86 507.062 1029.23 489.71Z" fill="#062427"/>
  <path d="M1470.27 531.53L1470.7 692.325H1584.39H1698.08V659.235V626.145L1622.99 625.704L1547.9 625.261V593.038V560.814H1609.63C1660.09 560.814 1671.71 560.386 1673.3 558.469C1674.64 556.857 1675.11 547.169 1674.79 527.5L1674.32 498.876L1611.54 498.028L1548.75 497.179V467.801V438.422L1620.02 438.532C1659.22 438.592 1692.26 438.013 1693.45 437.243C1695.1 436.172 1695.5 428.273 1695.15 403.725L1694.68 371.607L1582.26 371.171L1469.83 370.735L1470.27 531.53Z" fill="#062427"/>
  <path d="M108.978 231.535C113.178 230.438 120.814 228.91 125.947 228.142C141.576 225.803 201.624 227.633 213.334 230.806C218.934 232.323 226.188 234.186 229.454 234.948C257.536 241.495 290.812 258.725 345.689 295.126C400.098 331.219 407.377 335.489 434.773 347.37C449.283 353.664 474.033 360.819 495.859 365.029C517.968 369.291 561.726 369.32 584.096 365.085C601.235 361.84 617.547 357.511 634.153 351.801C643.726 348.509 648.15 346.682 666.041 338.635C680.563 332.103 696.48 326.682 698.131 327.702C699.748 328.701 699.447 344.808 696.717 403.416L695.711 425.042L689.536 431.519C678.081 443.538 659.99 453.569 635.001 461.758C630.801 463.134 625.838 464.923 623.971 465.732C609.525 472.001 563.681 479.362 539.085 479.362C515.77 479.362 470.663 471.984 455.984 465.768C454.117 464.979 448.56 463.063 443.634 461.514C430.779 457.468 388.763 435.928 372.838 425.22C365.372 420.201 350.864 409.853 340.598 402.227C313.92 382.408 308.748 379.054 288.832 368.657C263.142 355.244 242.349 348.003 213.334 342.365C194.532 338.711 140.535 338.755 120.856 342.439C95.8871 347.114 90.4487 348.496 69.7336 355.422C49.3087 362.251 33.175 368.84 15.0595 377.75C9.60242 380.435 4.55599 382.273 3.84671 381.835C2.39591 380.937 0.405504 295.027 1.68153 288.352C3.37838 279.477 18.9079 267.99 49.5106 252.974C67.2104 244.291 83.8887 237.745 95.4035 234.967C98.6699 234.178 104.779 232.633 108.978 231.535Z" fill="#279B93"/>
  <path d="M47.0435 29.6465C74.2881 16.3647 94.3329 9.59736 120.008 5.01399C134.988 2.33965 177.511 1.95614 194.971 4.33861C211.514 6.59552 238.875 13.597 242.096 16.3986C242.982 17.169 245.157 17.8003 246.929 17.8003C255.442 17.8003 301.114 43.1895 343.685 71.5858C404.649 112.251 423.223 122.22 457.148 132.481C505.337 147.058 544.678 148.728 597.199 138.429C609.638 135.989 645.147 123.703 661.302 116.249C678.561 108.285 690.5 103.895 692.804 104.662C695.73 105.638 694.925 193.431 691.939 199.131C686.69 209.145 671.422 220.176 651.203 228.563C608.72 246.182 578.408 252.672 538.281 252.737C491.657 252.813 458.753 244.712 410.169 221.195C387.268 210.11 380.712 206.148 355.807 188.341C310.898 156.231 302.36 150.591 286.09 142.291C267.983 133.053 244.572 123.666 233.697 121.283C229.964 120.465 221.564 118.47 215.031 116.849C198.557 112.762 132.573 112.702 114.917 116.761C108.385 118.263 100.749 119.972 97.9489 120.561C78.3503 124.672 51.9966 134.004 22.8413 147.151C12.3294 151.892 3.41753 155.461 3.03913 155.081C2.65904 154.703 1.85813 133.776 1.25744 108.58C0.393746 72.3341 0.631305 61.9049 2.39433 58.6332C5.56404 52.7483 23.3792 41.1821 47.0435 29.6465Z" fill="#6BC4D0"/>
  <path fill-rule="evenodd" clip-rule="evenodd" d="M108.978 444.001C114.111 442.971 121.365 441.422 125.098 440.558C137.012 437.799 188.023 438.324 203.153 441.361C224.403 445.625 227.773 446.472 241.332 450.955C273.159 461.476 301.652 476.918 350.974 510.371C401.912 544.921 422.277 556.057 453.438 566.4C487.004 577.54 504.308 580.21 542.523 580.14C561.402 580.106 579.095 579.28 582.399 578.277C585.665 577.286 592.919 575.533 598.519 574.379C604.118 573.227 615.19 570.351 623.123 567.989C636.756 563.929 640.745 562.363 661.302 553.005C677.448 545.654 696.59 538.864 698.26 539.896C699.347 540.568 699.505 557.408 698.711 587.781L698.703 588.1C697.719 625.676 697.442 636.24 692.311 643.25C690.304 645.992 687.555 648.19 683.731 651.247L683.648 651.314C673.586 659.359 666.71 663.201 650.111 670.048C627.968 679.184 608.316 685.168 590.883 688.078C584.817 689.091 576.036 690.708 571.369 691.672C561.073 693.8 512.876 692.707 497.745 690.004C491.784 688.938 482.621 686.89 477.383 685.453C472.146 684.015 463.662 681.718 458.529 680.348C453.396 678.979 447.669 677.192 445.803 676.376C393.609 653.586 384.543 648.197 322.781 603.266C309.666 593.724 284.531 579.797 264.24 570.827C255.228 566.843 232.448 560.285 211.638 555.681C200.119 553.134 165.149 552.211 143.764 553.891C124.413 555.409 95.5139 560.512 86.7378 563.957C84.5047 564.834 79.2411 566.482 75.0414 567.619C70.8417 568.756 65.8784 570.273 64.0119 570.99C47.6203 577.294 34.4239 582.843 20.8746 589.129C9.60755 594.354 4.35411 596.011 3.08657 594.744C1.9395 593.597 1.05374 576.146 0.643105 546.611L0 500.276L5.35355 494.178C20.2417 477.222 74.6087 450.896 108.978 444.001Z" fill="#146A64"/>
  </svg>
