<?xml version="1.0" encoding="UTF-8"?>
<!DOCTYPE svg PUBLIC "-//W3C//DTD SVG 1.1//EN" "http://www.w3.org/Graphics/SVG/1.1/DTD/svg11.dtd">
<svg xmlns="http://www.w3.org/2000/svg" version="1.1" width="1268px" height="603px" style="shape-rendering:geometricPrecision; text-rendering:geometricPrecision; image-rendering:optimizeQuality; fill-rule:evenodd; clip-rule:evenodd" xmlns:xlink="http://www.w3.org/1999/xlink" viewBox="0 0 1268 603">
<g><path style="opacity:0.986" fill="#000000" d="M 514.5,-0.5 C 526.167,-0.5 537.833,-0.5 549.5,-0.5C 593.932,6.77758 628.099,29.4442 652,67.5C 672.034,103.784 676.034,141.784 664,181.5C 648.989,223.844 620.489,253.011 578.5,269C 516.419,287.277 464.252,272.111 422,223.5C 392.472,182.815 385.472,138.482 401,90.5C 422.124,39.1992 459.957,8.86587 514.5,-0.5 Z M 523.5,67.5 C 557.738,66.1916 582.238,80.8583 597,111.5C 609.345,152.639 596.511,183.139 558.5,203C 520.967,214.713 491.467,204.213 470,171.5C 454.878,138.396 460.378,109.229 486.5,84C 497.438,75.1944 509.771,69.6944 523.5,67.5 Z"/></g>
<g><path style="opacity:0.987" fill="#000000" d="M -0.5,119.5 C 22.1691,119.333 44.8358,119.5 67.5,120C 108.333,169.5 149.167,219 190,268.5C 190.5,218.834 190.667,169.168 190.5,119.5C 213.5,119.5 236.5,119.5 259.5,119.5C 259.5,205.5 259.5,291.5 259.5,377.5C 236.164,377.667 212.831,377.5 189.5,377C 149.119,327.741 108.619,278.575 68,229.5C 67.5,278.832 67.3333,328.166 67.5,377.5C 44.8333,377.5 22.1667,377.5 -0.5,377.5C -0.5,291.5 -0.5,205.5 -0.5,119.5 Z"/></g>
<g><path style="opacity:0.984" fill="#000000" d="M 737.5,119.5 C 762.408,119.172 787.241,119.506 812,120.5C 833.333,170.5 854.667,220.5 876,270.5C 897.333,220.5 918.667,170.5 940,120.5C 964.759,119.506 989.592,119.172 1014.5,119.5C 978.461,205.25 942.128,290.917 905.5,376.5C 885.833,377.833 866.167,377.833 846.5,376.5C 809.573,291.042 773.24,205.376 737.5,119.5 Z"/></g>
<g><path style="opacity:0.986" fill="#000000" d="M 1267.5,375.5 C 1267.5,376.167 1267.5,376.833 1267.5,377.5C 1242.5,377.5 1217.5,377.5 1192.5,377.5C 1171.63,327.417 1150.46,277.417 1129,227.5C 1107.83,277.167 1086.67,326.833 1065.5,376.5C 1040.5,377.833 1015.5,377.833 990.5,376.5C 1027.07,290.942 1063.74,205.442 1100.5,120C 1119.74,119.174 1138.91,119.341 1158,120.5C 1194.55,205.59 1231.05,290.59 1267.5,375.5 Z"/></g>
<g><path style="opacity:0.99" fill="#000000" d="M 325.5,309.5 C 463.167,309.5 600.833,309.5 738.5,309.5C 738.5,332.167 738.5,354.833 738.5,377.5C 600.833,377.5 463.167,377.5 325.5,377.5C 325.5,354.833 325.5,332.167 325.5,309.5 Z"/></g>
<g><path style="opacity:0.889" fill="#000000" d="M 325.5,469.5 C 337.185,480.686 348.685,492.019 360,503.5C 360.5,492.839 360.667,482.172 360.5,471.5C 363.167,471.5 365.833,471.5 368.5,471.5C 368.833,488.513 368.499,505.513 367.5,522.5C 356.181,511.681 345.014,500.681 334,489.5C 333.5,499.828 333.334,510.161 333.5,520.5C 330.833,520.5 328.167,520.5 325.5,520.5C 325.5,503.5 325.5,486.5 325.5,469.5 Z"/></g>
<g><path style="opacity:0.882" fill="#000000" d="M 519.5,469.5 C 527.982,485.801 535.982,502.468 543.5,519.5C 540.232,520.487 536.898,520.82 533.5,520.5C 532.466,516.757 531.132,513.09 529.5,509.5C 523.528,508.336 517.528,508.17 511.5,509C 509.548,512.354 507.881,515.854 506.5,519.5C 503.216,520.657 499.882,520.824 496.5,520C 504.581,503.339 512.248,486.506 519.5,469.5 Z M 519.5,488.5 C 521.853,492.036 523.853,495.869 525.5,500C 522.183,500.498 518.85,500.665 515.5,500.5C 516.826,496.51 518.16,492.51 519.5,488.5 Z"/></g>
<g><path style="opacity:0.889" fill="#000000" d="M 407.5,470.5 C 428.988,470.497 438.821,481.163 437,502.5C 430.64,519.43 418.806,525.264 401.5,520C 389.056,513.608 384.223,503.441 387,489.5C 390.222,479.106 397.055,472.773 407.5,470.5 Z M 410.5,478.5 C 425.008,480.843 430.508,489.177 427,503.5C 421.943,512.606 414.443,515.44 404.5,512C 395.214,505.447 393.047,496.947 398,486.5C 401.378,482.406 405.545,479.739 410.5,478.5 Z"/></g>
<g><path style="opacity:0.881" fill="#000000" d="M 596.5,470.5 C 603.04,469.837 608.54,471.837 613,476.5C 613.096,480.731 610.93,482.565 606.5,482C 601.278,476.78 597.278,477.447 594.5,484C 594.493,485.812 595.16,487.312 596.5,488.5C 602.518,491.003 608.018,494.336 613,498.5C 618.12,512.263 613.454,520.263 599,522.5C 590.599,522.409 585.599,518.409 584,510.5C 586.235,508.798 588.735,507.798 591.5,507.5C 592.071,511.722 594.571,513.722 599,513.5C 606,512.665 607.834,509.165 604.5,503C 600.039,500.936 595.706,498.602 591.5,496C 585.368,490.658 583.868,484.158 587,476.5C 589.551,473.319 592.718,471.319 596.5,470.5 Z"/></g>
<g><path style="opacity:0.876" fill="#000000" d="M 651.5,470.5 C 658.639,469.909 665.139,471.576 671,475.5C 671.821,478.554 671.655,481.554 670.5,484.5C 659.234,475.78 649.4,477.113 641,488.5C 636.854,505.34 643.354,513.507 660.5,513C 664.283,511.942 667.617,510.109 670.5,507.5C 673.402,514.415 671.402,518.915 664.5,521C 640.95,524.451 629.784,514.284 631,490.5C 633.796,479.536 640.629,472.869 651.5,470.5 Z"/></g>
<g><path style="opacity:0.893" fill="#000000" d="M 768.5,470.5 C 789.956,471.125 799.456,482.125 797,503.5C 792.791,515.119 784.457,521.453 772,522.5C 751.84,519.181 743.84,507.514 748,487.5C 752.023,478.3 758.856,472.633 768.5,470.5 Z M 771.5,478.5 C 786.155,481.473 791.321,490.139 787,504.5C 781.176,513.771 773.343,515.938 763.5,511C 752.554,500.625 752.887,490.625 764.5,481C 766.927,480.098 769.26,479.264 771.5,478.5 Z"/></g>
<g><path style="opacity:0.89" fill="#000000" d="M 834.5,470.5 C 856.473,470.64 866.307,481.64 864,503.5C 859.766,515.051 851.432,521.384 839,522.5C 816.22,517.71 808.886,504.377 817,482.5C 821.429,476.375 827.262,472.375 834.5,470.5 Z M 838.5,478.5 C 854.812,482.588 859.312,492.255 852,507.5C 843.945,515.062 835.612,515.396 827,508.5C 820.46,498.985 821.293,490.151 829.5,482C 832.459,480.396 835.459,479.229 838.5,478.5 Z"/></g>
<g><path style="opacity:0.892" fill="#000000" d="M 963.5,470.5 C 985.01,471.174 994.51,482.174 992,503.5C 987.791,515.119 979.457,521.453 967,522.5C 946.842,519.188 938.842,507.521 943,487.5C 947.049,478.269 953.882,472.602 963.5,470.5 Z M 966.5,478.5 C 981.155,481.473 986.321,490.139 982,504.5C 976.176,513.771 968.343,515.938 958.5,511C 947.683,500.588 948.016,490.588 959.5,481C 961.927,480.098 964.26,479.264 966.5,478.5 Z"/></g>
<g><path style="opacity:0.867" fill="#000000" d="M 447.5,471.5 C 450.777,471.216 453.943,471.549 457,472.5C 461.072,482.218 465.238,491.884 469.5,501.5C 474.068,491.702 478.068,481.702 481.5,471.5C 484.5,471.5 487.5,471.5 490.5,471.5C 484.343,488.819 477.343,505.819 469.5,522.5C 461.78,505.675 454.446,488.675 447.5,471.5 Z"/></g>
<g><path style="opacity:0.906" fill="#000000" d="M 689.5,471.5 C 692.5,471.5 695.5,471.5 698.5,471.5C 698.5,477.5 698.5,483.5 698.5,489.5C 705.833,489.5 713.167,489.5 720.5,489.5C 720.5,483.5 720.5,477.5 720.5,471.5C 723.167,471.5 725.833,471.5 728.5,471.5C 728.5,487.833 728.5,504.167 728.5,520.5C 725.833,520.5 723.167,520.5 720.5,520.5C 720.5,512.833 720.5,505.167 720.5,497.5C 713.167,497.5 705.833,497.5 698.5,497.5C 698.5,505.167 698.5,512.833 698.5,520.5C 695.5,520.5 692.5,520.5 689.5,520.5C 689.5,504.167 689.5,487.833 689.5,471.5 Z"/></g>
<g><path style="opacity:0.882" fill="#000000" d="M 882.5,471.5 C 885.5,471.5 888.5,471.5 891.5,471.5C 891.5,485.167 891.5,498.833 891.5,512.5C 897.167,512.5 902.833,512.5 908.5,512.5C 908.5,515.167 908.5,517.833 908.5,520.5C 899.833,520.5 891.167,520.5 882.5,520.5C 882.5,504.167 882.5,487.833 882.5,471.5 Z"/></g>
<g><path style="opacity:0.878" fill="#000000" d="M 1006.5,471.5 C 1015.5,471.5 1024.5,471.5 1033.5,471.5C 1033.5,474.167 1033.5,476.833 1033.5,479.5C 1027.5,479.5 1021.5,479.5 1015.5,479.5C 1015.5,483.167 1015.5,486.833 1015.5,490.5C 1021.5,490.5 1027.5,490.5 1033.5,490.5C 1033.5,493.167 1033.5,495.833 1033.5,498.5C 1027.5,498.5 1021.5,498.5 1015.5,498.5C 1015.5,505.833 1015.5,513.167 1015.5,520.5C 1012.5,520.5 1009.5,520.5 1006.5,520.5C 1006.5,504.167 1006.5,487.833 1006.5,471.5 Z"/></g>
<g><path style="opacity:0.898" fill="#000000" d="M 549.5,602.5 C 548.833,602.5 548.167,602.5 547.5,602.5C 536.814,591.315 525.981,580.315 515,569.5C 514.5,580.161 514.333,590.828 514.5,601.5C 511.833,601.5 509.167,601.5 506.5,601.5C 506.167,584.487 506.501,567.487 507.5,550.5C 518.819,561.319 529.986,572.319 541,583.5C 541.5,573.172 541.666,562.839 541.5,552.5C 544.167,552.5 546.833,552.5 549.5,552.5C 549.5,569.167 549.5,585.833 549.5,602.5 Z"/></g>
<g><path style="opacity:0.853" fill="#000000" d="M 1000.5,602.5 C 999.5,602.5 998.5,602.5 997.5,602.5C 987.202,591.702 976.702,581.035 966,570.5C 965.5,580.828 965.334,591.161 965.5,601.5C 962.5,601.5 959.5,601.5 956.5,601.5C 956.167,584.487 956.501,567.487 957.5,550.5C 968.846,561.346 980.013,572.346 991,583.5C 991.5,573.172 991.666,562.839 991.5,552.5C 994.5,552.5 997.5,552.5 1000.5,552.5C 1000.5,569.167 1000.5,585.833 1000.5,602.5 Z"/></g>
<g><path style="opacity:0.878" fill="#000000" d="M 1111.5,602.5 C 1110.5,602.5 1109.5,602.5 1108.5,602.5C 1104.63,593.081 1100.46,583.748 1096,574.5C 1093.72,583.424 1091.88,592.424 1090.5,601.5C 1087.48,601.665 1084.48,601.498 1081.5,601C 1085.28,584.038 1089.45,567.205 1094,550.5C 1099.61,562.047 1104.94,573.714 1110,585.5C 1115.14,573.749 1120.47,562.082 1126,550.5C 1130.47,567.032 1134.63,583.698 1138.5,600.5C 1135.63,601.783 1132.79,601.783 1130,600.5C 1128.15,592.109 1126.15,583.776 1124,575.5C 1119.27,584.282 1115.11,593.282 1111.5,602.5 Z"/></g>
<g><path style="opacity:0.879" fill="#000000" d="M 450.5,602.5 C 446.833,602.5 443.167,602.5 439.5,602.5C 433.32,600.679 430.32,596.679 430.5,590.5C 432.413,589.627 434.247,588.627 436,587.5C 438.771,593.637 443.271,595.47 449.5,593C 453.5,589.667 453.5,586.333 449.5,583C 442.725,580.534 436.892,576.7 432,571.5C 428.319,559.175 432.819,552.509 445.5,551.5C 451.986,551.074 456.653,553.741 459.5,559.5C 456.173,564.05 452.839,564.216 449.5,560C 444.619,558.32 441.286,559.82 439.5,564.5C 440.253,566.753 441.586,568.587 443.5,570C 450.212,572.258 455.712,576.091 460,581.5C 462.691,591.437 459.524,598.437 450.5,602.5 Z"/></g>
<g><path style="opacity:0.877" fill="#000000" d="M 632.5,602.5 C 628.833,602.5 625.167,602.5 621.5,602.5C 616.148,600.809 612.815,597.142 611.5,591.5C 613.583,590.041 615.75,588.708 618,587.5C 620.85,593.682 625.35,595.516 631.5,593C 635.5,589.667 635.5,586.333 631.5,583C 625.238,580.623 619.738,577.123 615,572.5C 610.524,559.757 614.857,552.757 628,551.5C 634.371,550.831 638.871,553.331 641.5,559C 638.433,563.907 635.099,564.241 631.5,560C 624.51,557.995 621.676,560.495 623,567.5C 627.422,570.964 632.256,573.797 637.5,576C 643.901,581.904 645.067,588.737 641,596.5C 638.678,599.395 635.845,601.395 632.5,602.5 Z"/></g>
<g><path style="opacity:0.877" fill="#000000" d="M 678.5,602.5 C 674.833,602.5 671.167,602.5 667.5,602.5C 662.148,600.809 658.815,597.142 657.5,591.5C 659.583,590.041 661.75,588.708 664,587.5C 666.85,593.682 671.35,595.516 677.5,593C 681.5,589.667 681.5,586.333 677.5,583C 671.238,580.623 665.738,577.123 661,572.5C 656.524,559.757 660.857,552.757 674,551.5C 680.371,550.831 684.871,553.331 687.5,559C 684.433,563.907 681.099,564.241 677.5,560C 670.51,557.995 667.676,560.495 669,567.5C 673.422,570.964 678.256,573.797 683.5,576C 689.901,581.904 691.067,588.737 687,596.5C 684.678,599.395 681.845,601.395 678.5,602.5 Z"/></g>
<g><path style="opacity:0.883" fill="#000000" d="M 863.5,602.5 C 858.833,602.5 854.167,602.5 849.5,602.5C 832.735,595.42 827.235,583.086 833,565.5C 842.305,551.07 854.805,547.57 870.5,555C 871.804,555.804 872.471,556.971 872.5,558.5C 871.936,560.819 871.436,563.153 871,565.5C 861.309,557.209 851.976,557.542 843,566.5C 837.542,577.214 839.709,586.047 849.5,593C 857.336,595.458 864.336,593.958 870.5,588.5C 871.657,591.784 871.824,595.118 871,598.5C 868.486,600.004 865.986,601.338 863.5,602.5 Z"/></g>
<g><path style="opacity:0.894" fill="#000000" d="M 919.5,602.5 C 915.5,602.5 911.5,602.5 907.5,602.5C 888.92,594.618 883.753,581.285 892,562.5C 899.182,552.987 908.682,549.487 920.5,552C 936.204,557.905 942.037,569.071 938,585.5C 934.81,594.528 928.644,600.194 919.5,602.5 Z M 910.5,559.5 C 922.265,559.428 928.932,565.262 930.5,577C 928.427,590.528 920.76,595.861 907.5,593C 899.061,588.279 895.894,581.113 898,571.5C 900.085,565.246 904.252,561.246 910.5,559.5 Z"/></g>
<g><path style="opacity:0.894" fill="#000000" d="M 1049.5,602.5 C 1045.5,602.5 1041.5,602.5 1037.5,602.5C 1021.2,596.904 1015.03,585.571 1019,568.5C 1024.72,555.052 1034.89,549.552 1049.5,552C 1065.09,557.33 1071.25,568.164 1068,584.5C 1064.56,593.443 1058.39,599.443 1049.5,602.5 Z M 1039.5,559.5 C 1054.8,559.641 1061.3,567.308 1059,582.5C 1051.46,596.257 1041.79,597.924 1030,587.5C 1023.91,574.937 1027.08,565.603 1039.5,559.5 Z"/></g>
<g><path style="opacity:0.886" fill="#000000" d="M 1212.5,602.5 C 1207.83,602.5 1203.17,602.5 1198.5,602.5C 1181.74,595.418 1176.24,583.085 1182,565.5C 1191.3,551.07 1203.8,547.57 1219.5,555C 1220.17,555.667 1220.83,556.333 1221.5,557C 1220.72,559.74 1220.22,562.574 1220,565.5C 1210.31,557.209 1200.98,557.542 1192,566.5C 1186.4,577.254 1188.56,586.087 1198.5,593C 1206.34,595.458 1213.34,593.958 1219.5,588.5C 1220.66,591.784 1220.82,595.118 1220,598.5C 1217.49,600.004 1214.99,601.338 1212.5,602.5 Z"/></g>
<g><path style="opacity:0.882" fill="#000000" d="M 1267.5,582.5 C 1267.5,586.167 1267.5,589.833 1267.5,593.5C 1266.03,595.151 1264.7,596.985 1263.5,599C 1261.57,600.459 1259.57,601.625 1257.5,602.5C 1253.5,602.5 1249.5,602.5 1245.5,602.5C 1242.61,601.121 1240.11,599.121 1238,596.5C 1236.7,594.635 1236.37,592.635 1237,590.5C 1239.09,589.692 1241.09,588.692 1243,587.5C 1245.65,593.828 1250.15,595.661 1256.5,593C 1259.17,589.667 1259.17,586.333 1256.5,583C 1249.69,580.52 1243.85,576.687 1239,571.5C 1235.98,555.855 1242.48,549.355 1258.5,552C 1267.25,555.434 1267.92,559.268 1260.5,563.5C 1257.67,559.829 1254.01,558.662 1249.5,560C 1245.93,562.626 1245.59,565.626 1248.5,569C 1253.66,571.412 1258.66,574.079 1263.5,577C 1264.98,578.812 1266.31,580.645 1267.5,582.5 Z"/></g>
<g><path style="opacity:0.884" fill="#000000" d="M 325.5,552.5 C 332.508,552.334 339.508,552.5 346.5,553C 353.738,556.655 356.238,562.488 354,570.5C 353.215,572.286 352.049,573.786 350.5,575C 357.009,581.212 358.175,588.379 354,596.5C 352.786,598.049 351.286,599.215 349.5,600C 341.585,601.401 333.585,601.901 325.5,601.5C 325.5,585.167 325.5,568.833 325.5,552.5 Z M 334.5,559.5 C 337.522,559.804 340.522,560.304 343.5,561C 347.361,569.671 344.361,573.505 334.5,572.5C 334.5,568.167 334.5,563.833 334.5,559.5 Z M 334.5,579.5 C 337.978,579.184 341.312,579.684 344.5,581C 348.105,584.315 348.439,587.982 345.5,592C 341.974,593.337 338.308,593.837 334.5,593.5C 334.5,588.833 334.5,584.167 334.5,579.5 Z"/></g>
<g><path style="opacity:0.941" fill="#000000" d="M 399.5,602.5 C 394.833,602.5 390.167,602.5 385.5,602.5C 379.852,600.35 376.019,596.35 374,590.5C 373.5,577.838 373.333,565.171 373.5,552.5C 376.167,552.5 378.833,552.5 381.5,552.5C 381.333,563.505 381.5,574.505 382,585.5C 385.088,593.984 390.921,596.484 399.5,593C 401.049,591.786 402.215,590.286 403,588.5C 404.415,576.562 404.915,564.562 404.5,552.5C 407.167,552.5 409.833,552.5 412.5,552.5C 412.667,565.171 412.5,577.838 412,590.5C 409.88,596.789 405.714,600.789 399.5,602.5 Z"/></g>
<g><path style="opacity:0.954" fill="#000000" d="M 478.5,552.5 C 481.167,552.5 483.833,552.5 486.5,552.5C 486.5,568.833 486.5,585.167 486.5,601.5C 483.833,601.5 481.167,601.5 478.5,601.5C 478.5,585.167 478.5,568.833 478.5,552.5 Z"/></g>
<g><path style="opacity:0.903" fill="#000000" d="M 569.5,552.5 C 578.5,552.5 587.5,552.5 596.5,552.5C 596.5,555.167 596.5,557.833 596.5,560.5C 590.5,560.5 584.5,560.5 578.5,560.5C 578.5,564.167 578.5,567.833 578.5,571.5C 584.5,571.5 590.5,571.5 596.5,571.5C 596.5,573.833 596.5,576.167 596.5,578.5C 590.5,578.5 584.5,578.5 578.5,578.5C 578.5,583.5 578.5,588.5 578.5,593.5C 584.5,593.5 590.5,593.5 596.5,593.5C 596.5,596.167 596.5,598.833 596.5,601.5C 587.5,601.5 578.5,601.5 569.5,601.5C 569.5,585.167 569.5,568.833 569.5,552.5 Z"/></g>
<g><path style="opacity:0.878" fill="#000000" d="M 737.5,602.5 C 734.167,602.5 730.833,602.5 727.5,602.5C 716.958,597 714.792,589 721,578.5C 723.158,577.174 724.992,575.507 726.5,573.5C 720.35,565.085 721.683,558.251 730.5,553C 745.186,550.909 750.019,556.743 745,570.5C 743.22,572.293 741.387,573.96 739.5,575.5C 741.787,579.122 744.453,582.455 747.5,585.5C 749.657,583.208 751.824,580.875 754,578.5C 756.077,580.076 757.577,582.076 758.5,584.5C 757.014,587.146 755.348,589.646 753.5,592C 755.819,594.989 758.153,597.989 760.5,601C 755.16,602.534 750.66,601.367 747,597.5C 744.093,599.868 740.926,601.535 737.5,602.5 Z M 733.5,559.5 C 736.833,558.833 738.833,560.167 739.5,563.5C 736.675,570.95 734.009,571.117 731.5,564C 731.519,562.167 732.185,560.667 733.5,559.5 Z M 731.5,580.5 C 735.254,583.425 738.588,586.925 741.5,591C 734.616,597.698 729.283,596.698 725.5,588C 726.622,584.72 728.622,582.22 731.5,580.5 Z"/></g>
<g><path style="opacity:0.931" fill="#000000" d="M 788.5,552.5 C 797.5,552.5 806.5,552.5 815.5,552.5C 815.5,555.167 815.5,557.833 815.5,560.5C 809.167,560.5 802.833,560.5 796.5,560.5C 796.5,564.167 796.5,567.833 796.5,571.5C 802.833,571.5 809.167,571.5 815.5,571.5C 815.5,573.833 815.5,576.167 815.5,578.5C 809.167,578.5 802.833,578.5 796.5,578.5C 796.5,583.5 796.5,588.5 796.5,593.5C 802.833,593.5 809.167,593.5 815.5,593.5C 815.5,596.167 815.5,598.833 815.5,601.5C 806.5,601.5 797.5,601.5 788.5,601.5C 788.5,585.167 788.5,568.833 788.5,552.5 Z"/></g>
<g><path style="opacity:0.954" fill="#000000" d="M 1153.5,552.5 C 1156.17,552.5 1158.83,552.5 1161.5,552.5C 1161.5,568.833 1161.5,585.167 1161.5,601.5C 1158.83,601.5 1156.17,601.5 1153.5,601.5C 1153.5,585.167 1153.5,568.833 1153.5,552.5 Z"/></g>
</svg>
