<?xml version="1.0" encoding="UTF-8"?>
<svg id="Camada_1" data-name="Camada 1" xmlns="http://www.w3.org/2000/svg" xmlns:xlink="http://www.w3.org/1999/xlink" viewBox="0 0 595.27557 427.71429">
  <defs>
    <style>
      .cls-1 {
        fill: url(#linear-gradient-2);
      }

      .cls-2 {
        fill: url(#linear-gradient-4);
      }

      .cls-2, .cls-3 {
        clip-rule: evenodd;
      }

      .cls-4 {
        fill: #00173a;
      }

      .cls-5 {
        fill: url(#linear-gradient-6);
      }

      .cls-5, .cls-6 {
        fill-rule: evenodd;
      }

      .cls-7 {
        clip-path: url(#clippath-1);
      }

      .cls-3 {
        fill: url(#linear-gradient-7);
      }

      .cls-8 {
        fill: url(#linear-gradient-5);
      }

      .cls-9 {
        clip-path: url(#clippath);
      }

      .cls-10 {
        fill: url(#linear-gradient);
      }

      .cls-6 {
        fill: url(#linear-gradient-3);
      }

      .cls-11 {
        fill: url(#linear-gradient-8);
      }
    </style>
    <linearGradient id="linear-gradient" x1="263.29519" y1="213.42207" x2="361.68694" y2="213.42207" gradientUnits="userSpaceOnUse">
      <stop offset="0" stop-color="#1d154e"/>
      <stop offset=".33419" stop-color="#1b2961"/>
      <stop offset=".40482" stop-color="#14326a"/>
      <stop offset=".56788" stop-color="#08427a"/>
      <stop offset=".75207" stop-color="#024c84"/>
      <stop offset="1" stop-color="#004f87"/>
    </linearGradient>
    <linearGradient id="linear-gradient-2" x1="135.86232" y1="146.1862" x2="252.39115" y2="146.1862" gradientUnits="userSpaceOnUse">
      <stop offset="0" stop-color="#1d154e"/>
      <stop offset=".23341" stop-color="#1b2961"/>
      <stop offset=".31473" stop-color="#14326a"/>
      <stop offset=".50248" stop-color="#08427a"/>
      <stop offset=".71455" stop-color="#024c84"/>
      <stop offset="1" stop-color="#004f87"/>
    </linearGradient>
    <linearGradient id="linear-gradient-3" x1="-2502.62015" y1="-992.62788" x2="-2308.29908" y2="-992.62788" gradientTransform="translate(-2000.94907 -765.64479) rotate(-138.13331) scale(1 -1)" xlink:href="#linear-gradient"/>
    <linearGradient id="linear-gradient-4" x1="-2502.62015" y1="-992.62788" x2="-2308.29908" y2="-992.62788" gradientTransform="translate(-2000.94907 -765.64479) rotate(-138.13331) scale(1 -1)" xlink:href="#linear-gradient"/>
    <clipPath id="clippath">
      <path class="cls-2" d="M557.75571,116.06429c-10.74107,13.09413-25.50765,11.98929-36.7684,11.79567-48.33617-.80923-92.44042-18.98608-130.53223-46.49682-1.99029-1.44118-7.95687-6.1375-9.798-7.81826,0,0,8.02636-7.12989,7.27765-7.16221l-30.01726-3.42054c-2.17756,.29365-2.01401-.25956-2.10984,.8465l4.65354,32.38844c.11722,.42012,5.90241-5.3718,5.90241-5.3718,.26685-.32924,0,0,0,0,27.67624,28.2204,91.35033,60.03236,143.81737,59.38322,12.29901-.15318,39.51058-2.54052,44.74423-21.24742l2.83053-12.89678Z"/>
    </clipPath>
    <linearGradient id="linear-gradient-5" x1="-2044.07832" y1="-879.91048" x2="-1841.21911" y2="-879.91048" gradientTransform="translate(-436.90617 -2067.37532) rotate(-89.99642) scale(1.11962 -1)" xlink:href="#linear-gradient"/>
    <linearGradient id="linear-gradient-6" x1="-2478.80281" y1="-1024.49018" x2="-2284.82175" y2="-1024.49018" gradientTransform="translate(-2000.94907 -765.64479) rotate(-138.13331) scale(1 -1)" xlink:href="#linear-gradient"/>
    <linearGradient id="linear-gradient-7" x1="-2478.80281" y1="-1024.49018" x2="-2284.82175" y2="-1024.49018" gradientTransform="translate(-2000.94907 -765.64479) rotate(-138.13331) scale(1 -1)" xlink:href="#linear-gradient"/>
    <clipPath id="clippath-1">
      <path class="cls-3" d="M351.60737,45.96998c10.67737-13.13373,25.45086-12.09848,36.71152-11.95753,48.33449,.59188,92.5313,18.56419,130.74359,45.90269,1.99076,1.43203,7.9805,6.10873,9.83769,7.76997,0,0-8.00329,7.17089-7.24356,7.20265l30.03117,3.28427c2.17541-.31327,2.00813,.24359,2.09546-.85247l-4.79047-32.37396c-.12086-.42189-5.87925,5.39515-5.87925,5.39515-.26685,.32597,0,0,0,0-27.8099-28.08319-91.61708-59.61794-144.08589-58.72867-12.30816,.21558-39.50759,2.71818-44.6471,21.45572l-2.77318,12.90219Z"/>
    </clipPath>
    <linearGradient id="linear-gradient-8" x1="12.11831" y1="-707.86014" x2="214.96071" y2="-707.86014" gradientTransform="translate(1174.10372 -73.85289) rotate(89.99765) scale(1.12301 -1.00004)" xlink:href="#linear-gradient"/>
  </defs>
  <g>
    <path class="cls-4" d="M561.14637,180.36874c16.36645,0,26.6875,10.93815,26.6875,24.74998,0,13.67444-10.32104,24.88737-26.6875,24.88737s-26.53843-11.21293-26.53843-24.88737c0-13.81183,10.17198-24.74998,26.53843-24.74998Zm0,42.93514c12.68242,0,18.87222-8.47665,18.87222-18.18516s-6.18981-18.05011-18.87222-18.05011c-12.67766,0-18.72306,8.34149-18.72306,18.05011s6.04541,18.18516,18.72306,18.18516Zm.29814-14.76658h-3.6888v7.3845h-5.30483v-22.70066h10.02291c5.4539,0,7.96434,2.18896,7.96434,6.42733v2.4615c0,2.59889-1.18302,4.51306-3.39533,5.47024l6.34354,8.34159h-6.19448l-5.74736-7.3845Zm.73582-10.80309h-4.42461v6.28993h4.42461c2.3567,0,2.94822-.81969,2.94822-2.32401v-1.64181c0-1.77687-.73582-2.32411-2.94822-2.32411Z"/>
    <g>
      <path class="cls-10" d="M327.02664,138.57786c-.01233,.09396,1.30024-.09966,1.29155,0,0,0-19.66212,124.38781-20.59595,124.38781-.29001,0-40.90954,1.51217-40.90954,1.51217h0c5.45418,.03549,10.28368-.00729,13.4202-.24546,.2364,0,1.26111-.04829,1.26111-.04829,3.48144,0,4.07707,3.23608,4.07707,5.68011l.34559,14.42529c0,2.37137-2.02317,3.63612-4.85314,4.00617l31.64515-.21006c12.05887,0,21.44609-4.15889,23.52418-16.98486l7.82498-37.19151-17.03119-95.28692v-.04446Z"/>
      <path class="cls-1" d="M244.70795,134.85983h7.6832v-.01953l-116.52883,.32364h5.59148c2.31944,0,4.18336,1.4267,4.18336,3.46024,0,.41414-.23817,.61187-.23817,1.01565l-5.32967,17.89226h50.54044c13.34557-17.76411,35.83262-22.67226,54.0982-22.67226Z"/>
      <g>
        <path class="cls-4" d="M148.16674,139.63797l-38.02587,127.679c-5.57102,18.93107-22.25569,20.76865-32.22611,20.76865-9.96911,0-26.66433-1.83758-32.22854-20.76865L7.6641,139.63797c0-.40377-.22239-.60104-.22239-1.01565,0-2.03354,1.85178-3.46015,4.16253-3.46015h24.57037c2.09901,0,3.9421,1.63489,4.40808,3.46015l33.62816,122.37585c.69379,2.46038,1.3857,3.26597,3.70393,3.26597,2.31262,0,3.01182-.80559,3.72653-3.26597l33.59136-122.37585c.48018-1.82526,2.32317-3.46015,4.42228-3.46015h24.56654c2.31953,0,4.18401,1.42661,4.18401,3.46015,0,.41461-.23873,.61187-.23873,1.01565Z"/>
        <path class="cls-4" d="M508.27556,183.64806l-14.55353,87.94015c-2.07949,12.82588-8.8001,16.4974-20.85411,16.4974h-12.51766c-10.44592,0-15.99966-4.4758-19.24975-16.28062l-18.32097-67.19597c-.46785-1.84122-.46785-2.24677-1.39065-2.24677-.92206,0-1.15482,.40555-1.61584,2.24677l-18.31191,67.19597c-3.24822,11.80482-8.81794,16.28062-19.24742,16.28062h-12.52186c-12.05523,0-18.78377-3.67152-20.86999-16.4974l-21.79522-132.96589v-.60505c0-1.83039,1.86439-2.85509,3.94201-2.85509h24.5685c1.86439,0,3.71971,1.42661,3.95611,3.67703l16.68803,121.55242c.24368,1.83758,.24368,3.06693,1.16154,3.06693,.91795,0,.91795-1.22935,1.39486-3.06693l19.93261-71.46217c1.38197-4.89722,4.63579-9.17165,14.60668-9.17165h15.98864c9.96901,0,13.23517,4.27442,14.62078,9.17165l19.92897,71.46217c.48382,1.83758,.48382,3.06693,1.3985,3.06693,.93196,0,.93196-1.22935,1.16117-3.06693l9.46026-76.52808c.22594-2.2436,2.07809-3.67198,3.93659-3.67198h24.57391c2.07949,0,3.92977,1.02648,3.92977,2.85678v.59973Z"/>
      </g>
      <g>
        <path class="cls-6" d="M557.75571,116.06429c-10.74107,13.09413-25.50765,11.98929-36.7684,11.79567-48.33617-.80923-92.44042-18.98608-130.53223-46.49682-1.99029-1.44118-7.95687-6.1375-9.798-7.81826,0,0,8.02636-7.12989,7.27765-7.16221l-30.01726-3.42054c-2.17756,.29365-2.01401-.25956-2.10984,.8465l4.65354,32.38844c.11722,.42012,5.90241-5.3718,5.90241-5.3718,.26685-.32924,0,0,0,0,27.67624,28.2204,91.35033,60.03236,143.81737,59.38322,12.29901-.15318,39.51058-2.54052,44.74423-21.24742l2.83053-12.89678Z"/>
        <g class="cls-9">
          <rect class="cls-8" x="250.93068" y="-5.81307" width="383.86888" height="227.10255" transform="translate(165.10782 469.10771) rotate(-66.1263)"/>
        </g>
      </g>
      <g>
        <path class="cls-5" d="M351.60737,45.96998c10.67737-13.13373,25.45086-12.09848,36.71152-11.95753,48.33449,.59188,92.5313,18.56419,130.74359,45.90269,1.99076,1.43203,7.9805,6.10873,9.83769,7.76997,0,0-8.00329,7.17089-7.24356,7.20265l30.03117,3.28427c2.17541-.31327,2.00813,.24359,2.09546-.85247l-4.79047-32.37396c-.12086-.42189-5.87925,5.39515-5.87925,5.39515-.26685,.32597,0,0,0,0-27.8099-28.08319-91.61708-59.61794-144.08589-58.72867-12.30816,.21558-39.50759,2.71818-44.6471,21.45572l-2.77318,12.90219Z"/>
        <g class="cls-7">
          <rect class="cls-11" x="274.28651" y="-60.25401" width="383.86615" height="227.78929" transform="translate(230.31836 459.33588) rotate(-66.38639)"/>
        </g>
      </g>
      <path class="cls-4" d="M284.19265,264.18409s-1.02471,.04829-1.26111,.04829c-8.11733,.6101-27.60171-.05875-39.89212-.05875-19.46112,0-33.61592-9.16483-33.61592-38.07892v-28.93062c0-28.91064,14.1548-38.07724,33.61592-38.07724,12.29041,0,31.77479-.66875,39.89212-.05866,.2364,0,1.26111,.04782,1.26111,.04782,3.48107,0,4.07707-3.23925,4.07707-5.67292l.34502-14.43388c0-2.85874-2.92459-4.13078-6.68156-4.13078-3.56149,0-21.50157,.01953-39.34563,.01953-27.83092,0-65.60936,11.18426-65.60936,62.30613v28.93062c0,51.12355,37.77845,62.30912,65.60936,62.30912,17.84406,0,35.78414,.01644,39.34563,.01644,3.75698,0,6.68156-1.26839,6.68156-4.13077l-.34502-14.42529c0-2.44404-.59599-5.68011-4.07707-5.68011Z"/>
    </g>
  </g>
  <g>
    <path class="cls-4" d="M238.11437,376.54451h8.80922v10.51108h-8.80922v14.71907h-12.21516v-14.71907h-27.13197l-5.00559-12.11296c3.90583-7.60948,11.21315-22.02639,18.42272-35.34132,1.60188-3.20376,6.30754-9.21136,10.11117-13.11497h14.41691c-3.30374,3.70365-10.11117,12.21294-12.71506,16.41871-6.0076,11.31313-11.61307,22.22635-17.0208,33.63946h18.92261v-20.92441h12.21516v20.92441Z"/>
    <path class="cls-4" d="M293.86687,401.72467h-12.61508v-75.18835h13.31493l28.23395,49.75823,.79983,3.30374v-53.06197h12.61508v75.18835h-13.11497l-28.33393-50.46031-.89981-3.50369v53.964Z"/>
    <path class="cls-4" d="M373.34763,402.42452c-12.71506,0-22.82622-9.5113-22.82622-24.32812v-5.80542c0-14.41691,10.71326-24.63028,25.13017-24.63028,12.11296,0,21.02439,7.30955,21.02439,18.02281v.29994c0,8.30933-6.5075,13.81482-18.32274,13.81482h-15.21674c0,1.20196,0-.39991,0,.90203,0,6.70745,5.60547,11.51309,11.81303,11.51309,8.10937,0,14.81905-3.40372,19.72467-8.20935-.19996,4.10579-.30216,12.5151-.40214,12.61508-3.10378,2.00179-8.40931,5.80542-20.92441,5.80542Zm3.70587-31.93761c4.30352,0,7.4073-2.20175,7.4073-5.9054,0-3.80585-3.10378-6.30754-8.80922-6.30754-9.31134,0-12.5151,6.30754-12.5151,12.21294h13.91702Z"/>
    <path class="cls-4" d="M437.21396,401.72467c-3.20376-5.60769-7.60948-13.41491-10.21115-17.92061-2.70387,4.90562-6.5075,11.71305-10.01119,17.92061h-13.91702c6.70745-10.4111,9.61128-15.5189,17.32074-27.13197-7.70946-11.51309-11.21315-17.22076-17.42071-26.83203h14.017c3.30374,6.10758,6.90741,12.61508,10.01119,18.12279,3.50369-6.0076,6.80743-12.11518,10.11117-18.12279h14.11698c-6.90741,10.81324-8.70925,14.61687-16.81862,26.83203,7.60726,12.01521,9.91121,16.21875,16.81862,27.13197h-14.017Z"/>
    <path class="cls-4" d="M462.53743,381.50011v-24.22815h-7.20957v-9.81123h7.20957v-15.41892l12.11296-2.30173v17.72065h18.62268v9.81123h-18.62268v24.32812c0,13.41713,12.01521,9.91343,16.72086,5.70767,.09998,3.10378,.19996,7.10737,.29994,11.41311-2.80384,1.60188-7.10737,3.40372-12.81503,3.40372-12.01521,0-16.31873-10.51108-16.31873-20.62447Z"/>
  </g>
</svg>