<?xml version="1.0" encoding="UTF-8"?>
<svg id="Camada_1" data-name="Camada 1" xmlns="http://www.w3.org/2000/svg" xmlns:xlink="http://www.w3.org/1999/xlink" viewBox="0 0 595.27557 409.33333">
  <defs>
    <style>
      .cls-1 {
        fill: url(#linear-gradient-2);
      }

      .cls-2 {
        fill: url(#linear-gradient-12);
      }

      .cls-2, .cls-3, .cls-4, .cls-5 {
        fill-rule: evenodd;
      }

      .cls-6 {
        fill: #191e39;
      }

      .cls-7 {
        fill: url(#linear-gradient-4);
      }

      .cls-7, .cls-8, .cls-9, .cls-10 {
        clip-rule: evenodd;
      }

      .cls-11 {
        fill: #00173a;
      }

      .cls-12 {
        fill: url(#linear-gradient-14);
      }

      .cls-13 {
        clip-path: url(#clippath-2);
      }

      .cls-14 {
        fill: url(#linear-gradient-11);
      }

      .cls-3 {
        fill: url(#linear-gradient-9);
      }

      .cls-4 {
        fill: url(#linear-gradient-6);
      }

      .cls-15 {
        clip-path: url(#clippath-1);
      }

      .cls-8 {
        fill: url(#linear-gradient-13);
      }

      .cls-9 {
        fill: url(#linear-gradient-7);
      }

      .cls-16 {
        fill: url(#linear-gradient-5);
      }

      .cls-17 {
        clip-path: url(#clippath);
      }

      .cls-18 {
        clip-path: url(#clippath-3);
      }

      .cls-19 {
        fill: url(#linear-gradient);
      }

      .cls-10 {
        fill: url(#linear-gradient-10);
      }

      .cls-5 {
        fill: url(#linear-gradient-3);
      }

      .cls-20 {
        fill: url(#linear-gradient-8);
      }
    </style>
    <linearGradient id="linear-gradient" x1="263.29519" y1="213.42207" x2="361.68694" y2="213.42207" gradientUnits="userSpaceOnUse">
      <stop offset="0" stop-color="#1d154e"/>
      <stop offset=".33419" stop-color="#1b2961"/>
      <stop offset=".40482" stop-color="#14326a"/>
      <stop offset=".56788" stop-color="#08427a"/>
      <stop offset=".75207" stop-color="#024c84"/>
      <stop offset="1" stop-color="#004f87"/>
    </linearGradient>
    <linearGradient id="linear-gradient-2" x1="135.86232" y1="146.1862" x2="252.39115" y2="146.1862" gradientUnits="userSpaceOnUse">
      <stop offset="0" stop-color="#1d154e"/>
      <stop offset=".23341" stop-color="#1b2961"/>
      <stop offset=".31473" stop-color="#14326a"/>
      <stop offset=".50248" stop-color="#08427a"/>
      <stop offset=".71455" stop-color="#024c84"/>
      <stop offset="1" stop-color="#004f87"/>
    </linearGradient>
    <linearGradient id="linear-gradient-3" x1="-2189.89585" y1="-873.0013" x2="-1995.57477" y2="-873.0013" gradientTransform="translate(-1688.2245 -646.0185) rotate(-138.13331) scale(1 -1)" xlink:href="#linear-gradient"/>
    <linearGradient id="linear-gradient-4" x1="-2189.89585" y1="-873.0013" x2="-1995.57477" y2="-873.0013" gradientTransform="translate(-1688.2245 -646.0185) rotate(-138.13331) scale(1 -1)" xlink:href="#linear-gradient"/>
    <clipPath id="clippath">
      <path class="cls-7" d="M557.75571,116.06429c-10.74107,13.09413-25.50765,11.98929-36.7684,11.79567-48.33617-.80923-92.44042-18.98608-130.53223-46.49682-1.99029-1.44118-7.95687-6.1375-9.798-7.81826,0,0,8.02636-7.12989,7.27765-7.16221l-30.01726-3.42054c-2.17756,.29365-2.01401-.25956-2.10984,.8465l4.65354,32.38844c.11722,.42012,5.90241-5.3718,5.90241-5.3718,.26685-.32924,0,0,0,0,27.67624,28.2204,91.35033,60.03236,143.81737,59.38322,12.29901-.15318,39.51058-2.54052,44.74423-21.24742l2.83053-12.89678Z"/>
    </clipPath>
    <linearGradient id="linear-gradient-5" x1="-1874.66545" y1="-839.80965" x2="-1671.80624" y2="-839.80965" gradientTransform="translate(-396.81737 -1877.69318) rotate(-89.99642) scale(1.11962 -1)" xlink:href="#linear-gradient"/>
    <linearGradient id="linear-gradient-6" x1="-2166.0785" y1="-904.8636" x2="-1972.09745" y2="-904.8636" gradientTransform="translate(-1688.2245 -646.0185) rotate(-138.13331) scale(1 -1)" xlink:href="#linear-gradient"/>
    <linearGradient id="linear-gradient-7" x1="-2166.0785" y1="-904.8636" x2="-1972.09745" y2="-904.8636" gradientTransform="translate(-1688.2245 -646.0185) rotate(-138.13331) scale(1 -1)" xlink:href="#linear-gradient"/>
    <clipPath id="clippath-1">
      <path class="cls-9" d="M351.60737,45.96998c10.67737-13.13373,25.45086-12.09848,36.71152-11.95753,48.33449,.59188,92.5313,18.56419,130.74359,45.90269,1.99076,1.43203,7.9805,6.10873,9.83769,7.76997,0,0-8.00329,7.17089-7.24356,7.20265l30.03117,3.28427c2.17541-.31327,2.00813,.24359,2.09546-.85247l-4.79047-32.37396c-.12086-.42189-5.87925,5.39515-5.87925,5.39515-.26685,.32597,0,0,0,0-27.8099-28.08319-91.61708-59.61794-144.08589-58.72867-12.30816,.21558-39.50759,2.71818-44.6471,21.45572l-2.77318,12.90219Z"/>
    </clipPath>
    <linearGradient id="linear-gradient-8" x1="-155.02262" y1="190.03732" x2="47.81978" y2="190.03732" gradientTransform="translate(276.17532 113.83301) rotate(89.99765) scale(1.12301 -1.00004)" xlink:href="#linear-gradient"/>
    <linearGradient id="linear-gradient-9" x1="-2502.62015" y1="-524.05645" x2="-2308.29908" y2="-524.05645" gradientTransform="translate(-1688.2245 -646.0185) rotate(-138.13331) scale(1 -1)" xlink:href="#linear-gradient"/>
    <linearGradient id="linear-gradient-10" x1="-2502.62015" y1="-524.05645" x2="-2308.29908" y2="-524.05645" gradientTransform="translate(-1688.2245 -646.0185) rotate(-138.13331) scale(1 -1)" xlink:href="#linear-gradient"/>
    <clipPath id="clippath-2">
      <path class="cls-10" d="M557.75571,584.63572c-10.74107,13.09413-25.50765,11.98929-36.7684,11.79567-48.33617-.80923-92.44042-18.98608-130.53223-46.49682-1.99029-1.44118-7.95687-6.1375-9.798-7.81826,0,0,8.02636-7.12989,7.27765-7.16221l-30.01726-3.42054c-2.17756,.29365-2.01401-.25956-2.10984,.8465l4.65354,32.38844c.11722,.42012,5.90241-5.3718,5.90241-5.3718,.26685-.32924,0,0,0,0,27.67624,28.2204,91.35033,60.03236,143.81737,59.38322,12.29901-.15318,39.51058-2.54052,44.74423-21.24742l2.83053-12.89678Z"/>
    </clipPath>
    <linearGradient id="linear-gradient-11" x1="-2044.07832" y1="-411.33905" x2="-1841.21911" y2="-411.33905" gradientTransform="translate(31.66301 -1598.76284) rotate(-89.99642) scale(1.11962 -1)" xlink:href="#linear-gradient"/>
    <linearGradient id="linear-gradient-12" x1="-2478.80281" y1="-555.91875" x2="-2284.82175" y2="-555.91875" gradientTransform="translate(-1688.2245 -646.0185) rotate(-138.13331) scale(1 -1)" xlink:href="#linear-gradient"/>
    <linearGradient id="linear-gradient-13" x1="-2478.80281" y1="-555.91875" x2="-2284.82175" y2="-555.91875" gradientTransform="translate(-1688.2245 -646.0185) rotate(-138.13331) scale(1 -1)" xlink:href="#linear-gradient"/>
    <clipPath id="clippath-3">
      <path class="cls-8" d="M351.60737,514.5414c10.67737-13.13373,25.45086-12.09848,36.71152-11.95753,48.33449,.59188,92.5313,18.56419,130.74359,45.90269,1.99076,1.43203,7.9805,6.10873,9.83769,7.76997,0,0-8.00329,7.17089-7.24356,7.20265l30.03117,3.28427c2.17541-.31327,2.00813,.24359,2.09546-.85247l-4.79047-32.37396c-.12086-.42189-5.87925,5.39515-5.87925,5.39515-.26685,.32597,0,0,0,0-27.8099-28.08319-91.61708-59.61794-144.08589-58.72867-12.30816,.21558-39.50759,2.71818-44.6471,21.45572l-2.77318,12.90219Z"/>
    </clipPath>
    <linearGradient id="linear-gradient-14" x1="12.11831" y1="-239.28871" x2="214.96071" y2="-239.28871" gradientTransform="translate(705.51213 394.71033) rotate(89.99765) scale(1.12301 -1.00004)" xlink:href="#linear-gradient"/>
  </defs>
  <g>
    <g>
      <path class="cls-6" d="M36.63392,337.20041h8.494v43.01062h21.30431l-1.41567,7.61722h-28.38264v-50.62784Z"/>
      <path class="cls-6" d="M102.03182,365.91921v21.90904h-7.6848l-.13516-2.76549c-1.95456,1.75356-5.86367,3.17095-9.23562,3.17095h-1.41567c-6.33671,0-12.53827-4.04427-12.53827-11.66495,0-8.02269,6.20156-12.06695,12.53827-12.06695h1.68598c3.03407,0,6.60702,1.34809,8.56158,3.17095v-1.08124c0-2.08971,0-3.10164-.47131-4.44973-1.01193-2.36002-3.70811-3.77396-6.27087-3.77396-3.97669,0-7.81995,1.07778-11.72907,3.50711-1.21467-4.6542-1.34982-4.92451-2.09144-7.95684,3.16922-1.21293,6.80975-2.63033,13.07889-2.63033,9.1022,0,15.70749,6.06813,15.70749,14.63144Zm-8.15611,10.24755c0-3.37195-2.89891-4.92104-5.59509-4.92104h-2.89891c-3.03407,0-5.8654,1.54909-5.8654,4.92104,0,3.16749,2.83133,4.92104,5.8654,4.92104h2.89891c2.6286,0,5.59509-1.75356,5.59509-4.92104Z"/>
      <path class="cls-6" d="M144.30775,364.09981v11.39118c0,7.41622-6.06813,12.60758-13.14647,12.60758-4.04427,0-7.95511-1.75356-10.3134-4.44973l-.27031,4.17942h-7.95511c.06758-46.24742,0-45.64095,0-48.60744l8.22542-2.56102v19.28218c2.35829-2.69618,6.26913-4.38389,10.3134-4.38389,7.07833,0,13.14647,5.0562,13.14647,12.54173Zm-8.494,2.08971c0-4.58489-3.57296-7.48553-7.4838-7.48553-3.90911,0-7.41622,2.90064-7.41622,7.48553v7.41276c0,4.8552,3.50711,7.48553,7.41622,7.48553,3.91084,0,7.4838-2.63033,7.4838-7.48553v-7.41276Z"/>
      <path class="cls-6" d="M205.45865,382.36659c-3.57296,0-6.26913-1.00847-7.61722-3.6388h-.33789c-3.77569,2.56102-6.26913,3.6388-8.76431,3.6388-4.92104,0-8.494-3.03233-8.494-9.90793,0-11.32533,5.93298-19.01186,13.34747-19.01186,2.4276,0,5.0562,.54062,7.41622,2.08971l.33789-1.6184h7.01076l-3.57296,20.15895c-.06758,.402-.13516,.94262-.13516,1.27878,0,1.14709,.60647,1.68424,2.08971,1.68424,3.91084,0,8.96704-4.44627,8.96704-15.50475,0-12.1328-6.53944-18.20093-19.68591-18.20093-14.22424,0-24.00049,9.97724-24.00049,27.91133,0,14.22251,6.06813,20.89711,18.87671,20.89711,2.89891,0,7.95511-.94262,11.05675-2.08971l.60647,5.72851c-3.70811,1.2164-8.56158,1.95802-12.13453,1.95802-16.24811,0-24.74211-8.96878-24.74211-26.49393,0-21.6422,12.87615-33.50815,30.3372-33.50815,15.43891,0,25.81989,7.82169,25.81989,23.79775,0,14.42698-9.16804,20.83126-16.38153,20.83126Zm-5.19135-22.38035c-2.02213-1.07778-3.70811-1.4174-4.98862-1.4174-4.04427,0-7.54964,5.73198-7.54964,13.41851,0,3.36849,1.48324,4.78589,3.90911,4.78589,1.41567,0,3.30438-.60647,6.00055-2.15902l2.6286-14.62798Z"/>
      <path class="cls-6" d="M254.1406,387.82825h-8.494v-50.62784h8.96704l19.01013,33.50469,.53889,2.22487v-35.72955h8.49573v50.62784h-8.83189l-19.07944-33.976-.60647-2.36002v36.33602Z"/>
      <path class="cls-6" d="M325.54079,372.18834c.06758,8.62915-6.74218,15.97607-16.71942,15.97607-9.63935,0-16.44911-7.34691-16.44911-15.97607v-4.92104c0-8.62915,6.74218-15.91022,16.38153-15.91022,10.04482,0,16.65184,7.28107,16.787,15.91022v4.92104Zm-8.35884-3.97842c0-5.99882-3.43953-9.97724-8.36058-9.97724s-8.22369,4.11358-8.22369,10.04655v3.50364c0,5.66267,3.16749,9.50593,8.35884,9.50593,4.78589,0,8.22542-4.04427,8.22542-9.50593v-3.57296Z"/>
      <path class="cls-6" d="M350.42152,387.82825h-8.96531l-11.32533-36.47117h8.62915c1.61667,4.98689,4.92104,18.8074,6.33671,24.60522,.201,.81093,.53889,2.08971,.87504,3.84327,.20273-1.34809,.47304-2.49518,.87678-3.90911,1.48324-5.93298,4.72004-19.61833,6.33671-24.53938h8.62915l-11.39291,36.47117Z"/>
      <path class="cls-6" d="M396.94271,365.91921v21.90904h-7.6848l-.13516-2.76549c-1.95456,1.75356-5.8654,3.17095-9.23562,3.17095h-1.41567c-6.33671,0-12.53827-4.04427-12.53827-11.66495,0-8.02269,6.20156-12.06695,12.53827-12.06695h1.68598c3.03407,0,6.60702,1.34809,8.56158,3.17095v-1.08124c0-2.08971,0-3.10164-.47131-4.44973-1.01193-2.36002-3.70811-3.77396-6.27087-3.77396-3.97669,0-7.81995,1.07778-11.72907,3.50711-1.21467-4.6542-1.34982-4.92451-2.08971-7.95684,3.16749-1.21293,6.80802-2.63033,13.07715-2.63033,9.1022,0,15.70749,6.06813,15.70749,14.63144Zm-8.15611,10.24755c0-3.37195-2.89891-4.92104-5.59509-4.92104h-2.89891c-3.03407,0-5.8654,1.54909-5.8654,4.92104,0,3.16749,2.83133,4.92104,5.8654,4.92104h2.89891c2.6286,0,5.59509-1.75356,5.59509-4.92104Z"/>
      <path class="cls-6" d="M419.19658,382.36659s2.02213-5.99882,2.96649-8.76431c2.89891,3.10164,9.70693,6.74391,14.15667,7.08007,4.17942,.27031,8.15784-1.07778,8.96704-5.2572,.74162-3.91258-1.68598-6.4736-5.39409-7.88753-4.11184-1.6184-8.96531-2.15902-12.80858-4.04773-5.8654-2.83133-9.43835-10.24409-6.74218-17.32415,2.76549-7.28107,10.58544-9.84209,18.67398-9.10047,5.12378,.47131,10.45029,2.83133,14.3594,5.32651-1.07778,2.35656-2.22487,5.0562-3.57296,8.35884-3.23507-3.10164-7.95511-5.66267-11.79664-6.06813-4.38216-.54062-7.21349,.47131-8.62915,3.6388-1.55082,3.30611,.201,7.28107,4.04427,8.83362,4.11184,1.6184,10.65129,2.76202,14.29182,4.92104,5.59682,3.2368,8.15784,9.10047,6.80975,15.23444-1.82113,8.22715-9.37078,11.46049-18.4054,11.19364-6.26913,0-13.27989-3.44127-16.92042-6.13744Z"/>
      <path class="cls-6" d="M464.30384,387.82825v-50.62784h18.94255c8.09027,.06584,14.83244,5.12204,14.83244,13.7512,.13516,4.65073-2.49518,8.76431-5.59509,10.78818,3.90911,1.95456,7.54964,6.80629,7.54964,11.86249,0,8.092-5.73024,14.22598-14.96587,14.22598h-20.76369Zm18.87498-28.98911c3.57469,0,6.27087-3.03233,6.27087-7.14591,0-3.90911-2.63033-6.94491-6.60702-6.94491h-10.04482v14.09082h10.38098Zm7.88927,14.02151c0-3.70811-3.37195-7.01076-7.41622-7.01076h-10.85402v14.49629h10.78644c5.0562,0,7.4838-3.17095,7.4838-7.48553Z"/>
      <path class="cls-6" d="M509.6121,387.82825v-50.62784h30.80851v7.81822h-22.31451v13.28335h19.82106v7.48207h-19.82106v14.15667h21.64046l.94436,7.88753h-31.07882Z"/>
    </g>
    <g>
      <path class="cls-11" d="M561.14637,180.36874c16.36645,0,26.6875,10.93815,26.6875,24.74998,0,13.67444-10.32104,24.88737-26.6875,24.88737s-26.53843-11.21293-26.53843-24.88737c0-13.81183,10.17198-24.74998,26.53843-24.74998Zm0,42.93514c12.68242,0,18.87222-8.47665,18.87222-18.18516s-6.18981-18.05011-18.87222-18.05011c-12.67766,0-18.72306,8.34149-18.72306,18.05011s6.04541,18.18516,18.72306,18.18516Zm.29814-14.76658h-3.6888v7.3845h-5.30483v-22.70066h10.02291c5.4539,0,7.96434,2.18896,7.96434,6.42733v2.4615c0,2.59889-1.18302,4.51306-3.39533,5.47024l6.34354,8.34159h-6.19448l-5.74736-7.3845Zm.73582-10.80309h-4.42461v6.28993h4.42461c2.3567,0,2.94822-.81969,2.94822-2.32401v-1.64181c0-1.77687-.73582-2.32411-2.94822-2.32411Z"/>
      <g>
        <path class="cls-19" d="M327.02664,138.57786c-.01233,.09396,1.30024-.09966,1.29155,0,0,0-19.66212,124.38781-20.59595,124.38781-.29001,0-40.90954,1.51217-40.90954,1.51217h0c5.45418,.03549,10.28368-.00729,13.4202-.24546,.2364,0,1.26111-.04829,1.26111-.04829,3.48144,0,4.07707,3.23608,4.07707,5.68011l.34559,14.42529c0,2.37137-2.02317,3.63612-4.85314,4.00617l31.64515-.21006c12.05887,0,21.44609-4.15889,23.52418-16.98486l7.82498-37.19151-17.03119-95.28692v-.04446Z"/>
        <path class="cls-1" d="M244.70795,134.85983h7.6832v-.01953l-116.52883,.32364h5.59148c2.31944,0,4.18336,1.4267,4.18336,3.46024,0,.41414-.23817,.61187-.23817,1.01565l-5.32967,17.89226h50.54044c13.34557-17.76411,35.83262-22.67226,54.0982-22.67226Z"/>
        <g>
          <path class="cls-11" d="M148.16674,139.63797l-38.02587,127.679c-5.57102,18.93107-22.25569,20.76865-32.22611,20.76865-9.96911,0-26.66433-1.83758-32.22854-20.76865L7.6641,139.63797c0-.40377-.22239-.60104-.22239-1.01565,0-2.03354,1.85178-3.46015,4.16253-3.46015h24.57037c2.09901,0,3.9421,1.63489,4.40808,3.46015l33.62816,122.37585c.69379,2.46038,1.3857,3.26597,3.70393,3.26597,2.31262,0,3.01182-.80559,3.72653-3.26597l33.59136-122.37585c.48018-1.82526,2.32317-3.46015,4.42228-3.46015h24.56654c2.31953,0,4.18401,1.42661,4.18401,3.46015,0,.41461-.23873,.61187-.23873,1.01565Z"/>
          <path class="cls-11" d="M508.27556,183.64806l-14.55353,87.94015c-2.07949,12.82588-8.8001,16.4974-20.85411,16.4974h-12.51766c-10.44592,0-15.99966-4.4758-19.24975-16.28062l-18.32097-67.19597c-.46785-1.84122-.46785-2.24677-1.39065-2.24677-.92206,0-1.15482,.40555-1.61584,2.24677l-18.31191,67.19597c-3.24822,11.80482-8.81794,16.28062-19.24742,16.28062h-12.52186c-12.05523,0-18.78377-3.67152-20.86999-16.4974l-21.79522-132.96589v-.60505c0-1.83039,1.86439-2.85509,3.94201-2.85509h24.5685c1.86439,0,3.71971,1.42661,3.95611,3.67703l16.68803,121.55242c.24368,1.83758,.24368,3.06693,1.16154,3.06693,.91795,0,.91795-1.22935,1.39486-3.06693l19.93261-71.46217c1.38197-4.89722,4.63579-9.17165,14.60668-9.17165h15.98864c9.96901,0,13.23517,4.27442,14.62078,9.17165l19.92897,71.46217c.48382,1.83758,.48382,3.06693,1.3985,3.06693,.93196,0,.93196-1.22935,1.16117-3.06693l9.46026-76.52808c.22594-2.2436,2.07809-3.67198,3.93659-3.67198h24.57391c2.07949,0,3.92977,1.02648,3.92977,2.85678v.59973Z"/>
        </g>
        <g>
          <path class="cls-5" d="M557.75571,116.06429c-10.74107,13.09413-25.50765,11.98929-36.7684,11.79567-48.33617-.80923-92.44042-18.98608-130.53223-46.49682-1.99029-1.44118-7.95687-6.1375-9.798-7.81826,0,0,8.02636-7.12989,7.27765-7.16221l-30.01726-3.42054c-2.17756,.29365-2.01401-.25956-2.10984,.8465l4.65354,32.38844c.11722,.42012,5.90241-5.3718,5.90241-5.3718,.26685-.32924,0,0,0,0,27.67624,28.2204,91.35033,60.03236,143.81737,59.38322,12.29901-.15318,39.51058-2.54052,44.74423-21.24742l2.83053-12.89678Z"/>
          <g class="cls-17">
            <rect class="cls-16" x="250.93068" y="-5.81307" width="383.86888" height="227.10255" transform="translate(165.10782 469.10771) rotate(-66.1263)"/>
          </g>
        </g>
        <g>
          <path class="cls-4" d="M351.60737,45.96998c10.67737-13.13373,25.45086-12.09848,36.71152-11.95753,48.33449,.59188,92.5313,18.56419,130.74359,45.90269,1.99076,1.43203,7.9805,6.10873,9.83769,7.76997,0,0-8.00329,7.17089-7.24356,7.20265l30.03117,3.28427c2.17541-.31327,2.00813,.24359,2.09546-.85247l-4.79047-32.37396c-.12086-.42189-5.87925,5.39515-5.87925,5.39515-.26685,.32597,0,0,0,0-27.8099-28.08319-91.61708-59.61794-144.08589-58.72867-12.30816,.21558-39.50759,2.71818-44.6471,21.45572l-2.77318,12.90219Z"/>
          <g class="cls-15">
            <rect class="cls-20" x="274.28651" y="-60.25401" width="383.86615" height="227.78929" transform="translate(230.31836 459.33588) rotate(-66.38639)"/>
          </g>
        </g>
        <path class="cls-11" d="M284.19265,264.18409s-1.02471,.04829-1.26111,.04829c-8.11733,.6101-27.60171-.05875-39.89212-.05875-19.46112,0-33.61592-9.16483-33.61592-38.07892v-28.93062c0-28.91064,14.1548-38.07724,33.61592-38.07724,12.29041,0,31.77479-.66875,39.89212-.05866,.2364,0,1.26111,.04782,1.26111,.04782,3.48107,0,4.07707-3.23925,4.07707-5.67292l.34502-14.43388c0-2.85874-2.92459-4.13078-6.68156-4.13078-3.56149,0-21.50157,.01953-39.34563,.01953-27.83092,0-65.60936,11.18426-65.60936,62.30613v28.93062c0,51.12355,37.77845,62.30912,65.60936,62.30912,17.84406,0,35.78414,.01644,39.34563,.01644,3.75698,0,6.68156-1.26839,6.68156-4.13077l-.34502-14.42529c0-2.44404-.59599-5.68011-4.07707-5.68011Z"/>
      </g>
    </g>
  </g>
  <g>
    <g>
      <path class="cls-3" d="M557.75571,584.63572c-10.74107,13.09413-25.50765,11.98929-36.7684,11.79567-48.33617-.80923-92.44042-18.98608-130.53223-46.49682-1.99029-1.44118-7.95687-6.1375-9.798-7.81826,0,0,8.02636-7.12989,7.27765-7.16221l-30.01726-3.42054c-2.17756,.29365-2.01401-.25956-2.10984,.8465l4.65354,32.38844c.11722,.42012,5.90241-5.3718,5.90241-5.3718,.26685-.32924,0,0,0,0,27.67624,28.2204,91.35033,60.03236,143.81737,59.38322,12.29901-.15318,39.51058-2.54052,44.74423-21.24742l2.83053-12.89678Z"/>
      <g class="cls-13">
        <rect class="cls-14" x="250.93068" y="462.75836" width="383.86888" height="227.10255" transform="translate(-263.37256 748.03805) rotate(-66.1263)"/>
      </g>
    </g>
    <g>
      <path class="cls-2" d="M351.60737,514.5414c10.67737-13.13373,25.45086-12.09848,36.71152-11.95753,48.33449,.59188,92.5313,18.56419,130.74359,45.90269,1.99076,1.43203,7.9805,6.10873,9.83769,7.76997,0,0-8.00329,7.17089-7.24356,7.20265l30.03117,3.28427c2.17541-.31327,2.00813,.24359,2.09546-.85247l-4.79047-32.37396c-.12086-.42189-5.87925,5.39515-5.87925,5.39515-.26685,.32597,0,0,0,0-27.8099-28.08319-91.61708-59.61794-144.08589-58.72867-12.30816,.21558-39.50759,2.71818-44.6471,21.45572l-2.77318,12.90219Z"/>
      <g class="cls-18">
        <rect class="cls-12" x="274.28651" y="408.31742" width="383.86615" height="227.78929" transform="translate(-199.01846 740.21319) rotate(-66.38639)"/>
      </g>
    </g>
  </g>
</svg>